<?xml version="1.0" encoding="UTF-8" standalone="no"?>
<svg
   xmlns:dc="http://purl.org/dc/elements/1.1/"
   xmlns:cc="http://creativecommons.org/ns#"
   xmlns:rdf="http://www.w3.org/1999/02/22-rdf-syntax-ns#"
   xmlns:svg="http://www.w3.org/2000/svg"
   xmlns="http://www.w3.org/2000/svg"
   xmlns:sodipodi="http://sodipodi.sourceforge.net/DTD/sodipodi-0.dtd"
   xmlns:inkscape="http://www.inkscape.org/namespaces/inkscape"
   height="24"
   viewBox="0 0 24 24"
   width="24"
   version="1.1"
   id="svg122"
   sodipodi:docname="action_remove_line.svg"
   inkscape:version="1.0 (4035a4fb49, 2020-05-01)">
  <metadata
     id="metadata128">
    <rdf:RDF>
      <cc:Work
         rdf:about="">
        <dc:format>image/svg+xml</dc:format>
        <dc:type
           rdf:resource="http://purl.org/dc/dcmitype/StillImage" />
      </cc:Work>
    </rdf:RDF>
  </metadata>
  <defs
     id="defs126" />
  <sodipodi:namedview
     inkscape:document-rotation="0"
     pagecolor="#ffffff"
     bordercolor="#666666"
     borderopacity="1"
     objecttolerance="10"
     gridtolerance="10"
     guidetolerance="10"
     inkscape:pageopacity="0"
     inkscape:pageshadow="2"
     inkscape:window-width="1280"
     inkscape:window-height="962"
     id="namedview124"
     showgrid="false"
     inkscape:zoom="30.625"
     inkscape:cx="11.118368"
     inkscape:cy="14.555336"
     inkscape:window-x="-8"
     inkscape:window-y="-8"
     inkscape:window-maximized="1"
     inkscape:current-layer="svg122" />
  <linearGradient
     gradientUnits="userSpaceOnUse"
     x1="-10"
     x2="-10"
     y1="15"
     y2="21"
     id="linearGradient100">
    <stop
       offset="0"
       stop-color="#555753"
       id="stop96" />
    <stop
       offset="1"
       stop-color="#555753"
       stop-opacity="0"
       id="stop98" />
  </linearGradient>
  <g
     transform="translate(0 -8)"
     id="g120">
    <path
       d="m2.5 10.5l6.5 12.5 6-10h6"
       fill="none"
       stroke="#8cbe8c"
       stroke-linecap="round"
       stroke-linejoin="round"
       stroke-width="2"
       id="path102" />
    <g
       transform="translate(33 8)"
       id="g110">
      <rect
         fill="#c4a000"
         height="11"
         rx="2.0114901"
         width="11"
         x="-20"
         y="13"
         id="rect104" />
      <path
         d="m-15 14v2.0625c-.537663.111041-1.024662.383291-1.375.78125l-1.78125-1.03125-.5.875 1.78125 1.03125c-.082063.247432-.125.506395-.125.78125 0 .274855.04294.533818.125.78125l-1.78125 1.03125.5.875 1.78125-1.03125c.352503.40042.832682.670182 1.375.78125v2.0625h1v-2.0625c.537663-.111041 1.024662-.383291 1.375-.78125l1.78125 1.03125.5-.875-1.78125-1.03125c.082063-.247432.125-.506395.125-.78125 0-.274855-.04294-.533818-.125-.78125l1.78125-1.03125-.5-.875-1.78125 1.03125c-.352503-.40042-.832682-.670182-1.375-.78125v-2.0625zm.5 3.5c.552 0 1 .448 1 1 0 .552-.448 1-1 1-.552 0-1-.448-1-1 0-.552.448-1 1-1z"
         fill="#fcffff"
         id="path106" />
      <path
         d="m-19 19l9-.0096c0 0 0 0 0-2 0-2.9904-1-2.9904-4.5-2.9904-3.5 0-4.5 0-4.5 3 0 2 0 2 0 2z"
         fill="#fcffff"
         fill-rule="evenodd"
         opacity=".3"
         id="path108" />
    </g>
    <path
       d="m1.5 9.5h3v3h-3z"
       fill="#bebebe"
       stroke="#8c8c8c"
       stroke-width=".99999994"
       id="path112" />
    <path
       d="m7.5 21.5h3v3h-3z"
       fill="#bebebe"
       stroke="#8c8c8c"
       stroke-width=".99999994"
       id="path114" />
    <path
       d="m13.5 11.5h3v3h-3z"
       fill="#bebebe"
       stroke="#8c8c8c"
       stroke-width=".99999994"
       id="path116" />
    <path
       d="m19.5 11.5h3v3h-3z"
       fill="#bebebe"
       stroke="#8c8c8c"
       stroke-width=".99999994"
       id="path118" />
  </g>
  <path
     style="fill-rule:evenodd;stroke-width:0.0326531"
     d="m 14.02449,17.675375 c 0,-1.444037 0.03225,-1.863822 0.178866,-2.327836 0.132402,-0.419046 0.321876,-0.67943 0.651226,-0.894947 0.386613,-0.252986 0.974332,-0.377196 1.912765,-0.404248 0.314286,-0.0091 0.714694,-0.02298 0.889796,-0.03092 l 0.318367,-0.01445 v 1.023329 1.023329 l -0.155102,0.03823 c -0.26837,0.06614 -0.730807,0.313273 -0.979329,0.523365 l -0.236473,0.199905 -0.883437,-0.511384 c -0.48589,-0.281261 -0.88776,-0.505956 -0.893044,-0.499321 -0.0053,0.0066 -0.121411,0.20956 -0.25806,0.450943 -0.223479,0.394767 -0.24287,0.442598 -0.192931,0.475876 0.03054,0.02035 0.431511,0.253507 0.891057,0.518131 l 0.835539,0.481133 -0.04941,0.169521 c -0.03335,0.114422 -0.04999,0.32076 -0.0512,0.634827 l -0.0018,0.465307 H 15.012906 14.02449 Z"
     id="path361" />
  <path
     style="fill-rule:evenodd;stroke-width:0.0326531"
     d="m 21.003777,18.627469 c 0.01248,-0.244609 0.0021,-0.410313 -0.03818,-0.609073 -0.04557,-0.224887 -0.04777,-0.280077 -0.0125,-0.312917 0.02355,-0.02193 0.417515,-0.256048 0.875474,-0.520262 0.45796,-0.264214 0.836731,-0.484429 0.841715,-0.489367 0.0074,-0.0074 -0.468246,-0.856695 -0.50131,-0.895084 -0.0055,-0.0064 -0.408185,0.21904 -0.89475,0.50107 l -0.884664,0.512781 -0.137638,-0.126685 c -0.283686,-0.26111 -0.686776,-0.489812 -1.03292,-0.586048 l -0.198596,-0.05521 v -1.016931 -1.01693 L 19.6,14.02355 c 1.27157,0.02357 1.912616,0.109985 2.347353,0.316441 0.582986,0.276858 0.869411,0.76698 0.990702,1.695258 0.01836,0.140483 0.03337,0.85681 0.03337,1.591837 v 1.336412 h -0.992401 -0.992401 z"
     id="path363" />
  <path
     style="fill-rule:evenodd;stroke-width:0.0326531"
     d="M 14.682711,23.9559 C 14.271742,23.88648 13.849222,23.655442 13.558001,23.340888 13.346584,23.112533 13.23159,22.922514 13.11579,22.610165 l -0.08691,-0.234422 -0.0092,-3.760949 c -0.01013,-4.123705 -0.01471,-4.012821 0.18309,-4.431898 0.265262,-0.562011 0.813757,-1.002198 1.402955,-1.12592 0.121306,-0.02547 1.287832,-0.03619 3.902041,-0.03585 4.167809,5.39e-4 3.933139,-0.01198 4.40807,0.235109 0.49802,0.259099 0.859153,0.72203 1.003482,1.286351 0.06224,0.243359 0.06437,0.375126 0.06383,3.944505 -4.8e-4,3.121533 -0.008,3.728092 -0.04856,3.921307 -0.139923,0.666454 -0.668014,1.249636 -1.338632,1.478283 l -0.261224,0.08906 -3.738776,0.0048 c -2.097544,0.0027 -3.815346,-0.0081 -3.913207,-0.02465 z m 4.345402,-1.976831 0.0086,-1.033409 0.195918,-0.0539 c 0.352169,-0.09688 0.707788,-0.299962 0.979592,-0.559403 l 0.163265,-0.155839 0.865306,0.503481 c 0.475919,0.276915 0.883969,0.499904 0.906779,0.49553 0.02281,-0.0044 0.150762,-0.198971 0.284339,-0.432441 0.210957,-0.368717 0.236246,-0.429521 0.19247,-0.462784 -0.02772,-0.02106 -0.425225,-0.254725 -0.883347,-0.51925 -0.830857,-0.479747 -0.8329,-0.481198 -0.813534,-0.578031 0.01068,-0.05339 0.01942,-0.117282 0.01942,-0.141976 0,-0.03715 0.177613,-0.0449 1.028571,-0.0449 h 1.028572 l -9.8e-5,-1.330613 c -1.31e-4,-1.701017 -0.04799,-2.106809 -0.312095,-2.64535 -0.269253,-0.549055 -0.755094,-0.824337 -1.695971,-0.960957 -0.219028,-0.0318 -0.855248,-0.04267 -2.497959,-0.04267 -2.37294,0 -2.605232,0.01356 -3.159585,0.184496 -0.604107,0.186274 -0.976283,0.545734 -1.163604,1.123845 -0.141748,0.437465 -0.156849,0.628988 -0.172966,2.1937 l -0.01555,1.510204 h 1.028122 1.028121 l 0.02892,0.122265 0.02891,0.122266 -0.872463,0.506305 c -0.479855,0.278469 -0.875671,0.518592 -0.879592,0.533609 -0.01163,0.04456 0.469918,0.870695 0.507254,0.87023 0.01885,-2.28e-4 0.423505,-0.226069 0.899232,-0.501855 l 0.864956,-0.501429 0.205154,0.187987 c 0.232026,0.212609 0.568818,0.401698 0.905749,0.508523 l 0.228572,0.07247 0.0086,1.031651 0.0086,1.031651 h 0.521532 0.521532 z"
     id="path365" />
  <path
     style="fill-rule:evenodd;stroke-width:0.0326531"
     d="m 14.038837,17.632886 c 0.02374,-1.443947 0.04675,-1.773939 0.150379,-2.156708 0.215736,-0.796858 0.685535,-1.175032 1.653153,-1.330737 0.29914,-0.04814 1.343057,-0.110836 1.864225,-0.111968 l 0.26986,-5.87e-4 -0.0086,1.001959 -0.0086,1.001959 -0.146939,0.03854 c -0.3168,0.0831 -0.737349,0.313976 -1.056355,0.579936 -0.125044,0.104252 -0.169733,0.12498 -0.212245,0.09845 -0.395552,-0.246892 -1.682788,-0.959691 -1.712398,-0.948229 -0.05688,0.02202 -0.480227,0.782049 -0.480227,0.86215 0,0.05381 0.174463,0.168263 0.865428,0.567762 0.689503,0.398653 0.861841,0.511671 0.847782,0.555967 -0.04858,0.153073 -0.0802,0.476068 -0.08037,0.8211 l -1.9e-4,0.383674 H 15.000115 14.01649 Z"
     id="path367" />
  <path
     style="fill-rule:evenodd;stroke-width:0.0326531"
     d="m 14.03827,17.632886 c 0.0124,-0.749796 0.03692,-1.488163 0.05448,-1.640816 0.11898,-1.034015 0.533554,-1.557055 1.409167,-1.777854 0.368619,-0.09295 0.866238,-0.140177 1.780192,-0.168941 l 0.694357,-0.02185 -0.0086,1.001588 -0.0086,1.001588 -0.261225,0.09055 c -0.303686,0.105266 -0.6034,0.274036 -0.886262,0.499058 -0.110302,0.08775 -0.207616,0.15954 -0.216254,0.15954 -0.0086,0 -0.337167,-0.185253 -0.730064,-0.411673 -0.864801,-0.49837 -1.025019,-0.581077 -1.057688,-0.54599 -0.04696,0.05044 -0.415773,0.712294 -0.438992,0.787802 -0.01331,0.0433 -0.007,0.09439 0.01491,0.120809 0.02089,0.02517 0.411526,0.262593 0.868073,0.527597 0.659178,0.382621 0.826463,0.493237 0.812492,0.537256 -0.04853,0.15291 -0.08014,0.476042 -0.08031,0.820934 l -1.9e-4,0.383674 h -0.983974 -0.983974 z"
     id="path369" />
  <path
     style="fill-rule:evenodd;stroke-width:0.0326531"
     d="m 14.03773,17.632886 c 0.01243,-0.749796 0.03707,-1.488163 0.05477,-1.640816 0.11645,-1.004277 0.517441,-1.532918 1.336299,-1.761689 0.351656,-0.09825 0.91854,-0.156274 1.788001,-0.183028 l 0.759662,-0.02337 -0.0086,1.004064 -0.0086,1.004064 -0.18388,0.05688 c -0.257405,0.07963 -0.715128,0.329453 -0.958669,0.523245 -0.113018,0.08993 -0.212815,0.16351 -0.221772,0.16351 -0.009,0 -0.278709,-0.151572 -0.599451,-0.336828 -0.644239,-0.372102 -1.134482,-0.642763 -1.164224,-0.642763 -0.02108,0 -0.341534,0.559778 -0.436507,0.7625 -0.05844,0.12474 -0.05832,0.126251 0.01441,0.185142 0.04033,0.03266 0.433473,0.269523 0.873653,0.526369 0.571647,0.333557 0.795225,0.480286 0.782473,0.513516 -0.04253,0.110822 -0.08029,0.505406 -0.08089,0.845126 l -6.47e-4,0.367347 H 14.99949 14.015222 Z"
     id="path371" />
  <path
     style="fill-rule:evenodd;stroke-width:0.0326531"
     d="m 14.036971,17.632886 c 0.0291,-1.762574 0.06277,-2.051006 0.297458,-2.547929 0.211616,-0.448074 0.580218,-0.722237 1.17323,-0.872637 0.377008,-0.09562 0.828964,-0.138935 1.7418,-0.166945 l 0.727009,-0.02231 -0.0086,1.00452 -0.0086,1.004519 -0.179592,0.05563 c -0.259595,0.08041 -0.666066,0.300548 -0.937994,0.508001 -0.129774,0.099 -0.24157,0.180007 -0.248436,0.180007 -0.0069,0 -0.399173,-0.220408 -0.871797,-0.489796 -0.472623,-0.269387 -0.870608,-0.489795 -0.884412,-0.489795 -0.02553,0 -0.335019,0.533568 -0.442272,0.7625 -0.05807,0.123959 -0.05792,0.126576 0.01063,0.182082 0.03825,0.03097 0.431368,0.26791 0.873593,0.526525 0.598989,0.350291 0.799247,0.482711 0.785233,0.519233 -0.03974,0.103549 -0.07849,0.522328 -0.07945,0.858639 l -10e-4,0.351021 h -0.984604 -0.984605 z"
     id="path373" />
  <path
     style="fill-rule:evenodd;stroke-width:0.0326531"
     d="m 14.037456,17.617931 c 0.02966,-1.760171 0.06191,-2.035251 0.296973,-2.532974 0.211616,-0.448074 0.580218,-0.722237 1.17323,-0.872637 0.377008,-0.09562 0.828964,-0.138935 1.7418,-0.166945 l 0.727009,-0.02231 -0.0086,1.004888 -0.0086,1.004888 -0.21874,0.07366 c -0.284996,0.09597 -0.606157,0.272696 -0.895112,0.492553 -0.127721,0.09718 -0.239251,0.176688 -0.247846,0.176688 -0.0086,0 -0.403338,-0.220408 -0.877208,-0.489796 -0.47387,-0.269387 -0.870446,-0.489795 -0.88128,-0.489795 -0.02111,0 -0.391433,0.639914 -0.460461,0.795672 -0.05356,0.120853 -0.09299,0.09133 0.899474,0.673404 0.766743,0.449689 0.805701,0.477223 0.785423,0.555102 -0.04526,0.173827 -0.07767,0.520196 -0.07869,0.841128 l -0.0011,0.334694 h -0.984719 -0.98472 z"
     id="path375" />
  <path
     style="fill-rule:evenodd;stroke-width:0.0326531"
     d=""
     id="path377" />
  <path
     id="path379"
     style="fill-rule:evenodd;stroke-width:0.0326531"
     d="m 17.625,14.033203 c -0.556421,9.92e-4 -1.499368,0.06104 -1.820312,0.115235 -0.560334,0.09463 -0.947117,0.273923 -1.212891,0.560546 0.03294,0.128976 0.07914,0.318058 0.105469,0.419922 0.08069,0.312173 0.127357,0.459471 0.193359,0.712891 0.110289,0.03401 0.371381,0.180459 1.148437,0.628906 0.290973,0.167922 0.538452,0.304688 0.550782,0.304688 0.01233,0 0.128138,-0.0789 0.255859,-0.175782 0.299006,-0.226798 0.562779,-0.372346 0.869141,-0.480468 l 0.24414,-0.08594 0.0098,-1 0.0078,-1 z m -3.279297,1.033203 c -0.0032,0.0066 -0.0086,0.01092 -0.01172,0.01758 -0.238304,0.505299 -0.267605,0.766119 -0.296875,2.544922 l -0.02344,1.367188 h 0.984375 0.556641 c -0.291677,-0.726112 -0.505367,-1.374806 -0.679688,-1.97461 -0.329601,-0.200146 -0.523438,-0.327303 -0.523438,-0.355468 0,-0.02069 0.156858,-0.298054 0.283204,-0.525391 -0.08279,-0.314093 -0.148525,-0.525726 -0.253907,-0.933594 -0.009,-0.03467 -0.02541,-0.102822 -0.03516,-0.140625 z m 0.931641,2.195313 c 0.158017,0.515042 0.36189,1.077397 0.628906,1.734375 h 0.07813 v -0.31836 c 0.0014,-0.315248 0.03645,-0.699262 0.07813,-0.857422 0.02038,-0.07735 -0.0098,-0.09999 -0.558594,-0.421874 -0.112004,-0.0657 -0.133906,-0.08197 -0.226562,-0.136719 z" />
  <rect
     style="fill:#ffffff;fill-rule:evenodd"
     id="rect749"
     width="11"
     height="11"
     x="13"
     y="13"
     rx="2.0114901" />
  <rect
     rx="2.0114901"
     y="13"
     x="13"
     height="11"
     width="11"
     id="rect755"
     style="fill:#ffffff;fill-rule:evenodd" />
  <g
     transform="matrix(1.0968249,0,0,1.0938962,-2.314079,-11.059353)"
     id="g10">
    <path
       d="m 15.143,22.5 h 7.715 c 0.354,0 0.643,0.288 0.643,0.643 v 7.715 c 0,0.354 -0.288,0.643 -0.643,0.643 h -7.715 c -0.354,0 -0.643,-0.288 -0.643,-0.643 v -7.715 c 0,-0.355 0.288,-0.643 0.643,-0.643 z"
       fill="#cc0000"
       opacity="0.9"
       stroke="#cc0000"
       stroke-linecap="square"
       stroke-linejoin="round"
       id="path2" />
    <path
       d="m 14.5,27 h 9 v -3 c 0,-1.5 0,-1.5 -2.25,-1.5 -0.523,0 -4.555,0 -5.25,0 -1.5,0 -1.5,0 -1.5,1.5 0,0.75 0,1.5 0,3 z"
       fill="#fcffff"
       opacity="0.3"
       id="path4" />
    <path
       d="m 16,24 6.001,6"
       fill="#5c3566"
       stroke="#eeeeec"
       stroke-linecap="round"
       stroke-width="1.7056"
       id="path6" />
    <path
       d="m 16,30 6.001,-6"
       fill="#5c3566"
       stroke="#eeeeec"
       stroke-linecap="round"
       stroke-width="1.7056"
       id="path8" />
  </g>
</svg>
